<svg xmlns="http://www.w3.org/2000/svg" version="1.1" xmlns:xlink="http://www.w3.org/1999/xlink" xmlns:svgjs="http://svgjs.dev/svgjs" width="2000" height="1500" viewBox="0 0 2000 1500"><rect width="2000" height="1500" fill="#000000"></rect><g transform="matrix(0.4340277777777778,0,0,0.4340277777777778,566.5040644213171,250)"><svg viewBox="0 0 243 280" data-background-color="#4ea9f3" preserveAspectRatio="xMidYMid meet" height="2304" width="2000" xmlns="http://www.w3.org/2000/svg" xmlns:xlink="http://www.w3.org/1999/xlink"><g id="tight-bounds" transform="matrix(1,0,0,1,-0.148881777845844,0)"><svg viewBox="0 0 243.2977635556917 280" height="280" width="243.2977635556917"><g><svg viewBox="0 0 278.2696 320.24744848164164" height="280" width="243.2977635556917"><g><svg viewBox="0 0 278.2696 320.24744848164164" height="320.24744848164164" width="278.2696"><g id="textblocktransform"><svg viewBox="0 0 278.2696 320.24744848164164" height="320.24744848164164" width="278.2696" id="textblock"><g><svg viewBox="0 0 278.2696 278.2696" height="278.2696" width="278.2696"><g transform="matrix(1,0,0,1,94.64902615526665,89.94321971048296)"><svg viewBox="0 0 88.97154768946673 98.38316057903408" height="98.38316057903408" width="88.97154768946673"><g id="icon-0"><svg xmlns="http://www.w3.org/2000/svg" xmlns:xlink="http://www.w3.org/1999/xlink" version="1.1" x="0" y="0" viewBox="6.252704170602946 3.455000000000001 83.69188215199885 92.545" enable-background="new 0 0 100 100" xml:space="preserve" height="98.38316057903408" width="88.97154768946673" class="icon-xg-0" data-fill-palette-color="accent" id="xg-0"><path d="M77.377 78.392l1.525 1.295c-1.501 1.768-3.706 2.781-6.049 2.781-1.306 0-2.6-0.325-3.741-0.94-2.804-1.511-4.422-4.535-4.123-7.704l1.99 0.188c-0.223 2.367 0.987 4.626 3.082 5.755 0.851 0.458 1.816 0.701 2.792 0.701C74.608 80.468 76.257 79.711 77.377 78.392zM89.225 83.497c-1.509 3.579-5.206 5.931-10.146 6.454l-0.053 0.004c-0.601 0.032-1.209 0.048-1.822 0.056V94h1.856v2H68.705v-2h6.499v-4.032c-2.203-0.142-4.623-0.619-7.598-1.891-6.876-2.94-11.487-8.152-12.367-13.279-3.599 1.627-7.428 2.484-11.408 2.562L46.037 86h6.508l5 5H36.217l4.305-4.305-2.492-9.802c-7.985-1.425-15.062-6.077-19.537-13.076-0.556-0.866-1.79-3.13-2.22-4.362l-9.263-22.79c-1.068-2.632-1.004-5.628 0.177-8.219l5.915-12.962L34.403 36h14.919l5.806-14.526c1.522-3.837 4.664-7.565 8.213-9.854-0.916-0.896-1.444-2.122-1.444-3.4 0-2.627 2.138-4.765 4.765-4.765 1.492 0 2.892 0.705 3.786 1.875 2.617 0.011 4.744 2.144 4.744 4.765 0 0.551-0.093 1.087-0.277 1.599 0.721 1.179 0.844 2.645 0.323 3.939l0.578 0.267C77.143 16.512 78 17.853 78 19.315V21h-4.784l3.295 4.96c0.574 0.865 0.626 1.97 0.135 2.885-0.49 0.914-1.439 1.482-2.477 1.482H73v17.309c0 3.606-0.693 7.123-2.05 10.46 2.665 2.116 4.411 5.1 4.978 6.157 0.504 0.178 1.001 0.37 1.483 0.573 4.4 1.854 8.057 4.773 10.295 8.218C90.023 76.61 90.563 80.322 89.225 83.497zM73 24.29v4.037h1.169c0.438 0 0.646-0.299 0.715-0.428 0.068-0.128 0.203-0.467-0.039-0.833L73 24.29zM63.896 8.219c0 0.781 0.583 2.093 1.615 2.631l7.929 3.903c0.26-0.781 0.102-1.657-0.435-2.3l-0.425-0.509 0.304-0.59c0.203-0.396 0.307-0.819 0.307-1.261 0-1.524-1.24-2.765-2.765-2.765-0.123 0-0.243 0.012-0.362 0.027l-0.667 0.087-0.332-0.585c-0.491-0.866-1.412-1.404-2.404-1.404C65.137 5.455 63.896 6.695 63.896 8.219zM32.666 37.104L13.749 18.885l-1.648 3.613L23.366 33.95l-1.426 1.402L11.212 24.446l-1.597 3.5 8.33 8.694-1.443 1.384-7.753-8.091c-0.69 1.932-0.66 4.074 0.115 5.981 0 0 9.345 22.981 9.386 23.078L32.666 37.104zM41.759 77.331c-0.532-0.026-1.061-0.07-1.587-0.125l2.568 10.099L41.045 89h11.672l-1-1h-7.232L41.759 77.331zM56.931 67.45l-4.278-1.019 3.668-3.871c0.317-3.749 4.146-6.733 8.755-6.733 1.528 0 2.924 0.446 4.174 1.132C70.406 53.975 71 50.844 71 47.636V19h4.972c-0.103-0.558-0.47-1.043-0.995-1.286l-9.861-4.83c-3.491 2.005-6.653 5.607-8.129 9.329L50.678 38H34.471l-6.586 10H42v2H26.567l-2.635 4H40v2H22.615l-1.976 3h22.598c6.04 0 10.99-4.913 11.036-10.952l2 0.015C56.22 55.195 50.374 60.998 43.241 61H19.18c0.316 0.612 0.646 1.192 0.998 1.739 5.059 7.915 13.679 12.639 23.059 12.639 4.163 0 8.149-0.924 11.864-2.727 0.044-1.108 0.257-2.199 0.697-3.242C56.092 68.71 56.471 68.056 56.931 67.45zM57.19 64.55l-0.7 0.739 1.478 0.352L57.19 64.55zM86.029 74.134c-2.022-3.113-5.359-5.764-9.396-7.465-0.56-0.236-1.141-0.456-1.729-0.652l-0.396-0.133-0.184-0.376c-0.038-0.077-3.821-7.681-9.25-7.681-3.557 0-6.502 2.158-6.751 4.868l2.592 3.637-1.429 1.28c-0.817 0.739-1.439 1.604-1.847 2.572-2.257 5.352 2.566 12.554 10.752 16.053 4.37 1.869 7.348 1.887 10.502 1.722 4.18-0.449 7.272-2.358 8.486-5.239C88.454 80.176 87.974 77.126 86.029 74.134zM62.099 61.79c-0.69 0-1.25 0.48-1.25 1.071s0.56 1.071 1.25 1.071 1.25-0.48 1.25-1.071S62.789 61.79 62.099 61.79zM67.88 19.506c0.829 0 1.502-0.672 1.502-1.5s-0.672-1.5-1.502-1.5-1.502 0.672-1.502 1.5S67.051 19.506 67.88 19.506z" fill="#ffffff" data-fill-palette-color="accent"></path></svg></g></svg></g><g id="text-0"><path d="M5.957 95.546l16.033 0.636 0.138-0.372-12.092-10.667 2.054-5.069 16.023 5.787 9.842 2.855-1.864 5.012-9.584-3.774-9.917-3.221 10.629 9.021-1.474 4.65-14.054-0.493 9.64 3.965 9.751 3.328-1.712 4.603-8.831-3.865-15.847-6.145z" fill="#ffffff" data-fill-palette-color="primary"></path><path d="M54.505 66.103c-1.064 1.142-2.295 1.735-3.694 1.78-1.397 0.054-2.711-0.492-3.939-1.638-1.224-1.141-1.765-2.69-1.624-4.646 0.146-1.961 0.966-3.743 2.459-5.345v0l1.84-1.974-0.493-0.46c-0.944-0.879-1.77-1.288-2.479-1.226-0.709 0.062-1.558 0.623-2.546 1.683v0c-0.415 0.445-0.815 1.058-1.199 1.84-0.384 0.781-0.735 1.729-1.051 2.845v0l-3.072-1.303c0.195-1.364 0.616-2.858 1.261-4.481 0.64-1.618 1.321-2.815 2.043-3.589v0c2.828-3.034 5.71-3.182 8.647-0.444v0l5.676 5.29c1.084 1.01 2.607 1.797 4.569 2.36v0l-1.562 4.295c-1.375-0.387-2.537-0.805-3.484-1.254v0c0.609 2.557 0.159 4.646-1.352 6.267zM52.68 62.138v0c0.722-0.774 1.146-2.025 1.273-3.751v0l-1.938-1.807c-1.188 0.809-2.08 1.533-2.676 2.172v0c-1.132 1.214-1.159 2.325-0.079 3.331v0c0.561 0.523 1.156 0.788 1.783 0.793 0.627 0.006 1.173-0.24 1.637-0.738z" fill="#ffffff" data-fill-palette-color="primary"></path><path d="M86.616 30c-0.844-1.619-1.546-2.622-2.105-3.009-0.557-0.396-1.352-0.325-2.384 0.214-1.032 0.538-1.988 1.559-2.868 3.061v0l1.334 2.561 4.69 8.05-4.248 3.334-4.036-8.75c-1.724-3.092-3.444-5.769-5.16-8.029v0l3.773-3.13c0.871 1.269 1.677 2.531 2.42 3.784v0c0.107-0.653 0.262-1.322 0.463-2.009 0.207-0.69 0.644-1.57 1.309-2.641 0.662-1.076 1.524-1.891 2.586-2.444 1.067-0.557 2.182-0.608 3.344-0.155 1.153 0.451 2.102 1.392 2.848 2.824v0l1.839 4.042 4.781 8.227-4.284 3.352z" fill="#ffffff" data-fill-palette-color="primary"></path><path d="M115.56 11.213l2.269-0.325-0.612-4.272 5.148-1.779 0.247 5.367 4.744-0.679 0.027 3.273-4.468 0.64 0.976 8.219c0.176 1.231 0.411 2.033 0.705 2.405 0.294 0.372 0.755 0.513 1.383 0.424 0.629-0.09 1.446-0.354 2.453-0.792v0l0.634 2.745c-1.522 1.688-2.938 2.626-4.248 2.813-1.303 0.187-2.442-0.138-3.417-0.974-0.974-0.829-1.572-2.017-1.793-3.562v0l-0.393-4.424-0.926-6.192-2.701 0.387z" fill="#ffffff" data-fill-palette-color="primary"></path><path d="M166.282 21.393c0.32-1.797 0.377-3.02 0.17-3.668-0.199-0.654-0.872-1.083-2.018-1.287-1.146-0.204-2.526 0.02-4.141 0.673v0l-0.507 2.842-1.203 9.239-5.439 0.038 2.148-9.393 3.057-19.813 5.518-0.024-2.309 10.009-0.813 4.562c0.484-0.451 1.014-0.881 1.591-1.289 0.583-0.407 1.451-0.826 2.602-1.259 1.153-0.439 2.319-0.554 3.498-0.344 1.185 0.211 2.099 0.851 2.742 1.92 0.637 1.061 0.814 2.386 0.531 3.975v0l-1.012 4.324-1.239 9.434-5.439 0.039z" fill="#ffffff" data-fill-palette-color="primary"></path><path d="M194.858 33.543c1.723-2.908 3.967-4.911 6.732-6.01 2.768-1.09 5.201-1.012 7.301 0.232 2.1 1.244 3.333 2.894 3.7 4.949 0.363 2.06-0.121 4.214-1.453 6.462v0c-1.777 2.999-4.012 5.046-6.707 6.141-2.685 1.093-5.177 0.958-7.475-0.405v0c-1.884-1.116-3.024-2.753-3.422-4.911-0.395-2.149 0.046-4.301 1.324-6.458zM206.262 38.685v0c1.952-3.295 1.804-5.608-0.444-6.94v0c-2.339-1.386-4.424-0.534-6.254 2.557v0c-0.954 1.61-1.371 3.067-1.251 4.368 0.115 1.298 0.713 2.268 1.794 2.908 1.081 0.641 2.147 0.711 3.197 0.211 1.044-0.504 2.03-1.538 2.958-3.104z" fill="#ffffff" data-fill-palette-color="primary"></path><path d="M237.572 67.279c1.404-1.167 2.236-2.064 2.497-2.693 0.269-0.628 0.032-1.39-0.712-2.286-0.744-0.895-1.943-1.615-3.598-2.157v0l-2.221 1.845-6.88 6.283-4.155-3.449 7.701-5.792c2.659-2.338 4.912-4.584 6.76-6.737v0l3.856 3.026c-1.057 1.119-2.12 2.174-3.189 3.165v0c0.661-0.033 1.348-0.023 2.062 0.029 0.718 0.057 1.67 0.298 2.857 0.722 1.192 0.42 2.17 1.091 2.936 2.012 0.769 0.926 1.055 2.005 0.856 3.235-0.198 1.222-0.917 2.348-2.159 3.38v0l-3.563 2.651-7.033 6.409-4.18-3.479z" fill="#ffffff" data-fill-palette-color="primary"></path><path d="M237.808 106.942l-0.659-5.177 9.99 0.886 6.606-5.379 7.8-6.913 2.652 4.659-7.148 5.146-3.358 2.53 0.168 0.488 3.04-0.039 9.989-0.426 1.023 4.801-19.692-0.633z" fill="#ffffff" data-fill-palette-color="primary"></path><path d="M40.612 178.376l-13.824 11.243 0.16 0.417 17.909-0.005 2.011 5.732-17.592 6.941-10.292 4.859-2.132-5.547 10.757-3.9 10.628-4.595-15.49 0.298-2.184-4.964 12.072-9.912-10.942 3.78-10.568 4.391-1.957-5.094 10.195-3.259 17.711-6.52z" fill="#ffffff" data-fill-palette-color="primary"></path><path d="M39.693 235.702c-1.194-1.247-1.773-2.647-1.74-4.2 0.03-1.557 0.718-2.981 2.066-4.27 1.348-1.29 3.104-1.789 5.269-1.498 2.16 0.286 4.081 1.309 5.763 3.067v0l2.065 2.158 0.538-0.515c1.037-0.992 1.543-1.884 1.518-2.675-0.02-0.786-0.588-1.763-1.703-2.929v0c-0.466-0.487-1.12-0.97-1.962-1.446-0.836-0.472-1.863-0.918-3.079-1.338v0l1.624-3.326c1.509 0.305 3.141 0.862 4.897 1.673 1.755 0.82 3.037 1.653 3.846 2.499v0c3.183 3.326 3.164 6.53-0.057 9.612v0l-6.229 5.961c-1.185 1.134-2.152 2.774-2.902 4.919v0l-4.65-2.004c0.506-1.5 1.041-2.763 1.606-3.79v0c-2.875 0.517-5.165-0.116-6.87-1.898zM44.215 233.942v0c0.809 0.846 2.166 1.393 4.07 1.64v0l2.129-2.037c-0.821-1.365-1.566-2.397-2.234-3.095v0c-1.276-1.333-2.506-1.433-3.692-0.299v0c-0.617 0.59-0.949 1.228-0.996 1.915-0.048 0.696 0.193 1.321 0.723 1.876z" fill="#ffffff" data-fill-palette-color="primary"></path><path d="M87.947 257.095c0.919-1.803 1.374-3.082 1.366-3.837-0.012-0.763-0.592-1.438-1.742-2.024-1.149-0.586-2.687-0.794-4.614-0.626v0l-1.456 2.856-4.262 9.431-5.751-1.695 5.322-9.281c1.678-3.555 2.988-6.837 3.928-9.847v0l5.269 1.394c-0.592 1.614-1.215 3.156-1.868 4.627v0c0.659-0.317 1.367-0.606 2.123-0.867 0.753-0.254 1.83-0.43 3.23-0.525 1.397-0.09 2.688 0.167 3.872 0.771 1.19 0.607 1.953 1.579 2.29 2.915 0.342 1.34 0.105 2.808-0.709 4.406v0l-2.474 4.262-4.361 9.627-5.786-1.714z" fill="#ffffff" data-fill-palette-color="primary"></path><path d="M118.275 256.134l2.526 0.349 0.655-4.748 6.043-0.317-1.381 5.799 5.268 0.727-0.965 3.512-4.974-0.686-1.472 9.071c-0.189 1.369-0.183 2.295 0.018 2.777 0.2 0.488 0.647 0.78 1.341 0.876 0.701 0.097 1.654 0.065 2.858-0.096v0l-0.162 3.133c-2.141 1.334-3.938 1.9-5.393 1.699-1.448-0.2-2.564-0.895-3.348-2.084-0.784-1.19-1.058-2.64-0.822-4.351v0l0.93-4.849 0.91-6.886-3.008-0.415z" fill="#ffffff" data-fill-palette-color="primary"></path><path d="M166.846 264.927c-0.353-1.993-0.763-3.287-1.232-3.883-0.463-0.603-1.329-0.792-2.599-0.567-1.27 0.225-2.623 0.985-4.06 2.28v0l0.558 3.156 2.281 10.096-5.66 2.12-1.345-10.614-4.399-21.832 5.74-2.125 1.429 11.315 0.898 5.071c0.327-0.656 0.719-1.306 1.176-1.952 0.449-0.65 1.189-1.423 2.219-2.317 1.031-0.894 2.204-1.458 3.52-1.691 1.316-0.233 2.51 0.083 3.583 0.947 1.08 0.863 1.776 2.178 2.089 3.943v0l0.594 4.893 2.319 10.31-5.661 2.121z" fill="#ffffff" data-fill-palette-color="primary"></path><path d="M195.948 256.546c-1.902-3.233-2.643-6.488-2.223-9.767 0.423-3.273 1.803-5.596 4.14-6.971 2.337-1.375 4.602-1.687 6.795-0.935 2.198 0.748 4.033 2.374 5.505 4.876v0c1.962 3.335 2.753 6.603 2.372 9.805-0.38 3.201-1.848 5.554-4.401 7.056v0c-2.098 1.234-4.299 1.466-6.602 0.696-2.309-0.768-4.171-2.354-5.586-4.76zM207.072 248.217v0c-2.157-3.666-4.486-4.763-6.989-3.29v0c-2.6 1.529-2.888 4.013-0.866 7.45v0c1.057 1.796 2.247 2.984 3.57 3.564 1.332 0.582 2.597 0.521 3.794-0.183 1.203-0.708 1.843-1.706 1.922-2.996 0.072-1.286-0.405-2.801-1.431-4.545z" fill="#ffffff" data-fill-palette-color="primary"></path><path d="M237.847 219.143c-1.548-1.304-2.691-2.037-3.428-2.199-0.746-0.161-1.535 0.251-2.365 1.238-0.831 0.987-1.383 2.437-1.655 4.353v0l2.451 2.064 8.221 6.288-2.954 5.217-7.835-7.285c-3.082-2.44-5.982-4.459-8.701-6.057v0l2.552-4.817c1.437 0.942 2.799 1.898 4.083 2.868v0c-0.16-0.714-0.281-1.469-0.363-2.264-0.077-0.791-0.004-1.88 0.22-3.265 0.229-1.381 0.772-2.58 1.628-3.597 0.861-1.022 1.98-1.545 3.358-1.569 1.382-0.029 2.759 0.533 4.131 1.688v0l3.591 3.375 8.388 6.428-2.979 5.248z" fill="#ffffff" data-fill-palette-color="primary"></path><path d="M275.228 193.215l-3.004 4.957-8.069-7.659-9.466 0.106-11.557 0.632 0.912-5.887 9.767 0.473 4.677 0.106 0.188-0.534-2.677-2.072-8.984-6.53 2.428-4.877 16.686 14.156z" fill="#ffffff" data-fill-palette-color="primary"></path><path d="M3.042 142.943c0-6.468 5.243-11.712 11.711-11.711 6.468 0 11.712 5.243 11.712 11.711 0 6.468-5.243 11.712-11.712 11.712-6.468 0-11.712-5.243-11.711-11.712z" fill="#ffffff" data-fill-palette-color="primary"></path><path d="M251.532 142.943c0-6.468 5.243-11.712 11.711-11.711 6.468 0 11.712 5.243 11.712 11.711 0 6.468-5.243 11.712-11.712 11.712-6.468 0-11.712-5.243-11.711-11.712z" fill="#ffffff" data-fill-palette-color="primary"></path></g><g id="text-1"></g></svg></g><g transform="matrix(1,0,0,1,53.1494936,299.47318)"><svg viewBox="0 0 171.97061280000003 20.77426848164163" height="20.77426848164163" width="171.97061280000003"><g transform="matrix(1,0,0,1,0,0)"><svg width="171.97061280000003" viewBox="1.44 -36.84 399.72 48.290000000000006" height="20.77426848164163" data-palette-color="#fcdb7c"><path d="M19.46-33.84L19.46-33.84Q19.46-32.84 18.96-32.26 18.46-31.69 17.9-31.45 17.33-31.2 17.14-31.15L17.14-31.15Q17.07-31.23 16.37-31.71 15.67-32.2 14.81-32.81 13.94-33.42 13.27-33.9 12.6-34.38 12.55-34.4L12.55-34.4Q11.47-33.84 10.53-32.13 9.59-30.42 9.59-26.9L9.59-26.9 9.59-23.71 15.8-23.71 15.8-21.14 9.59-21.14 9.59-3.2Q9.59-2.73 9.9-2.43 10.21-2.12 10.64-2.1L10.64-2.1 13.6-1.95 13.6 0 1.44 0 1.44-1.95 3.91-2.1Q4.35-2.15 4.65-2.44 4.96-2.73 4.96-3.2L4.96-3.2 4.96-21.14 1.76-21.14 1.76-22.9 4.96-23.8Q4.96-26.27 5.33-27.89 5.71-29.52 6.64-31.3L6.64-31.3Q8.11-34.13 10.41-35.49 12.72-36.84 15.16-36.84L15.16-36.84Q17.29-36.84 18.37-35.95 19.46-35.06 19.46-33.84ZM35.35-23.95L35.35-18.99 33.4-18.99Q32.93-19.56 32.29-19.96 31.64-20.36 30.71-20.36L30.71-20.36Q29.51-20.36 28.26-19.53 27-18.7 25.71-17.26L25.71-17.26 25.71-3.2Q25.71-2.15 26.76-2.1L26.76-2.1 30.05-1.95 30.05 0 17.55 0 17.55-1.9 20.02-2.1Q20.46-2.15 20.76-2.44 21.07-2.73 21.07-3.2L21.07-3.2 21.07-20.56 17.45-20.56 17.45-22.19 23.65-24.1 25.71-24.1 25.71-19.65Q26.44-20.46 27.54-21.66 28.64-22.85 29.88-23.78 31.13-24.71 32.3-24.71L32.3-24.71Q33.08-24.71 33.98-24.46 34.89-24.22 35.35-23.95L35.35-23.95ZM58.66-5.54L58.66-2.49Q56.56-1.2 54.13-0.29 51.7 0.61 49.16 0.61L49.16 0.61Q46.14 0.61 43.49-0.74 40.84-2.1 39.2-4.86 37.57-7.62 37.57-11.79L37.57-11.79Q37.57-15.7 39.08-18.6 40.6-21.51 43.26-23.11 45.92-24.71 49.31-24.71L49.31-24.71Q53.97-24.71 56.32-21.81 58.66-18.92 58.66-14.45L58.66-14.45Q58.66-14.21 58.66-13.81 58.66-13.4 58.61-13.06L58.61-13.06 42.4-13.06Q42.4-11.16 42.81-9.27 43.21-7.37 44.16-5.83 45.11-4.3 46.72-3.37 48.33-2.44 50.75-2.44L50.75-2.44Q52.9-2.44 54.94-3.43 56.98-4.42 58.66-5.54L58.66-5.54ZM42.67-15.31L53.66-15.31 53.66-16.41Q53.66-18.87 52.47-20.56 51.29-22.24 48.8-22.24L48.8-22.24Q46.33-22.24 44.6-20.39 42.87-18.53 42.67-15.31L42.67-15.31ZM78.56-7.25L78.56-7.25Q78.56-3.56 76.02-1.48 73.48 0.61 69.01 0.61L69.01 0.61Q66.72 0.61 64.78 0.13 62.83-0.34 62.08-0.66L62.08-0.66 62.08-7.3 64.62-7.3 65.23-3.05Q65.98-2.56 67.09-2.11 68.21-1.66 69.67-1.66L69.67-1.66Q71.82-1.66 72.99-2.86 74.16-4.05 74.16-5.54L74.16-5.54Q74.16-7.52 72.75-8.53 71.33-9.55 68.72-10.79L68.72-10.79 68.06-11.11Q65.32-12.4 63.87-13.81 62.42-15.21 62.42-17.46L62.42-17.46Q62.42-20.8 64.76-22.75 67.11-24.71 71.43-24.71L71.43-24.71Q73.63-24.71 75.35-24.3 77.07-23.9 77.82-23.56L77.82-23.56 77.82-17.65 75.21-17.65 74.82-21.14Q74.28-21.56 73.23-21.92 72.18-22.29 71.01-22.29L71.01-22.29Q68.96-22.29 67.96-21.35 66.96-20.41 66.96-18.95L66.96-18.95Q66.96-17.26 68.17-16.27 69.38-15.28 72.55-13.84L72.55-13.84Q75.16-12.65 76.86-11.17 78.56-9.69 78.56-7.25ZM107.8-1.95L107.8 0 96.67 0 96.67-1.95 98.72-2.1Q99.16-2.15 99.49-2.44 99.82-2.73 99.82-3.2L99.82-3.2 99.82-16.09Q99.82-18.24 98.79-19.64 97.77-21.04 94.86-21.04L94.86-21.04Q93.54-21.04 92.02-20.63 90.49-20.21 89.42-19.6L89.42-19.6 89.42-3.2Q89.42-2.17 90.42-2.1L90.42-2.1 92.57-1.95 92.57 0 81.31 0 81.31-1.95 83.71-2.1Q84.76-2.17 84.76-3.2L84.76-3.2 84.76-33.25 81.02-33.25 81.02-34.91 87.42-36.84 89.42-36.84 89.42-21.61Q90.32-22.17 91.76-22.89 93.2-23.61 94.79-24.16 96.38-24.71 97.67-24.71L97.67-24.71Q100.55-24.71 102.5-22.85 104.46-21 104.46-17.14L104.46-17.14 104.46-3.2Q104.46-2.73 104.79-2.44 105.12-2.15 105.56-2.1L105.56-2.1 107.8-1.95ZM156.09-1.95L156.09 0 148.69 0 148.03-2.95Q148.03-2.95 147.29-2.42 146.54-1.88 145.32-1.17 144.1-0.46 142.62 0.07 141.15 0.61 139.68 0.61L139.68 0.61Q136.97 0.61 135.08-1.2 133.19-3 133.19-6.15L133.19-6.15Q133.19-7.54 133.69-8.74 134.19-9.94 135.69-11.02 137.19-12.11 140.16-13.15 143.12-14.18 148.03-15.26L148.03-15.26 148.03-17.41Q148.03-22.34 143.37-22.34L143.37-22.34Q142.07-22.34 141.13-22.09 140.19-21.85 139.83-21.7L139.83-21.7 139.83-17.36 136.19-17.36Q135.51-17.36 134.92-17.61 134.34-17.87 134.34-18.8L134.34-18.8Q134.34-20.85 135.9-22.16 137.46-23.46 139.87-24.08 142.27-24.71 144.74-24.71L144.74-24.71Q147.84-24.71 149.55-23.74 151.25-22.78 151.94-21.08 152.62-19.38 152.62-17.21L152.62-17.21 152.62-3.2Q152.62-2.73 152.93-2.44 153.23-2.15 153.67-2.1L153.67-2.1 156.09-1.95ZM148.03-4.71L148.03-4.71 148.03-13.35Q144.66-12.52 142.67-11.68 140.68-10.84 139.71-10 138.73-9.16 138.42-8.29 138.12-7.42 138.12-6.49L138.12-6.49Q138.12-4.96 139.11-3.65 140.1-2.34 141.88-2.34L141.88-2.34Q142.88-2.34 143.95-2.7 145.03-3.05 145.96-3.53 146.88-4 147.46-4.36 148.03-4.71 148.03-4.71ZM184.26-1.95L184.26 0 173.22 0 173.22-1.95 175.32-2.1Q175.76-2.15 176.07-2.44 176.37-2.73 176.37-3.2L176.37-3.2 176.37-16.21Q176.37-18.58 175.28-19.81 174.18-21.04 171.56-21.04L171.56-21.04Q170.15-21.04 168.74-20.64 167.34-20.24 166.07-19.6L166.07-19.6 166.07-3.2Q166.07-2.17 167.12-2.1L167.12-2.1 169.22-1.95 169.22 0 157.92 0 157.92-1.95 160.36-2.1Q161.41-2.17 161.41-3.2L161.41-3.2 161.41-20.56 157.92-20.56 157.92-22.19 164.02-24.1 166.07-24.1 166.07-21.61Q168.17-22.8 170.38-23.75 172.59-24.71 174.32-24.71L174.32-24.71Q177.59-24.71 179.3-22.67 181.01-20.63 181.01-16.99L181.01-16.99 181.01-3.2Q181.01-2.73 181.32-2.44 181.62-2.15 182.06-2.1L182.06-2.1 184.26-1.95ZM212.16-1.95L212.16 0 204.3 0 204.3-2.66Q202.59-1.34 200.66-0.37 198.73 0.61 196.56 0.61L196.56 0.61Q194.05 0.61 192.23-0.45 190.41-1.51 189.25-3.27 188.09-5.03 187.53-7.15 186.97-9.28 186.97-11.4L186.97-11.4Q186.97-14.79 188.36-17.83 189.75-20.87 192.58-22.79 195.41-24.71 199.71-24.71L199.71-24.71Q200.91-24.71 202.31-24.48 203.72-24.24 204.3-24.1L204.3-24.1 204.3-33.25 200.52-33.25 200.52-34.91 206.96-36.84 208.96-36.84 208.96-3.2Q208.96-2.17 210.01-2.1L210.01-2.1 212.16-1.95ZM204.3-4.54L204.3-4.54 204.3-21.56Q203.67-21.78 202.41-22.03 201.15-22.29 200.05-22.29L200.05-22.29Q196.34-22.29 194.12-19.54 191.9-16.8 191.9-12.26L191.9-12.26Q191.9-8.18 193.8-5.49 195.71-2.81 199.15-2.81L199.15-2.81Q200.66-2.81 201.99-3.38 203.32-3.96 204.3-4.54ZM263.5-1.95L263.5 0 252.37 0 252.37-1.95 254.42-2.1Q254.86-2.15 255.19-2.44 255.52-2.73 255.52-3.2L255.52-3.2 255.52-16.09Q255.52-18.24 254.49-19.64 253.47-21.04 250.56-21.04L250.56-21.04Q249.24-21.04 247.72-20.63 246.19-20.21 245.12-19.6L245.12-19.6 245.12-3.2Q245.12-2.17 246.12-2.1L246.12-2.1 248.27-1.95 248.27 0 237.01 0 237.01-1.95 239.4-2.1Q240.45-2.17 240.45-3.2L240.45-3.2 240.45-33.25 236.72-33.25 236.72-34.91 243.11-36.84 245.12-36.84 245.12-21.61Q246.02-22.17 247.46-22.89 248.9-23.61 250.49-24.16 252.07-24.71 253.37-24.71L253.37-24.71Q256.25-24.71 258.2-22.85 260.16-21 260.16-17.14L260.16-17.14 260.16-3.2Q260.16-2.73 260.49-2.44 260.81-2.15 261.25-2.1L261.25-2.1 263.5-1.95ZM287.47-5.54L287.47-2.49Q285.37-1.2 282.94-0.29 280.51 0.61 277.98 0.61L277.98 0.61Q274.95 0.61 272.3-0.74 269.65-2.1 268.01-4.86 266.38-7.62 266.38-11.79L266.38-11.79Q266.38-15.7 267.89-18.6 269.41-21.51 272.07-23.11 274.73-24.71 278.12-24.71L278.12-24.71Q282.79-24.71 285.13-21.81 287.47-18.92 287.47-14.45L287.47-14.45Q287.47-14.21 287.47-13.81 287.47-13.4 287.42-13.06L287.42-13.06 271.21-13.06Q271.21-11.16 271.62-9.27 272.02-7.37 272.97-5.83 273.92-4.3 275.53-3.37 277.15-2.44 279.56-2.44L279.56-2.44Q281.71-2.44 283.75-3.43 285.79-4.42 287.47-5.54L287.47-5.54ZM271.48-15.31L282.47-15.31 282.47-16.41Q282.47-18.87 281.28-20.56 280.1-22.24 277.61-22.24L277.61-22.24Q275.14-22.24 273.41-20.39 271.68-18.53 271.48-15.31L271.48-15.31ZM313.79-1.95L313.79 0 306.39 0 305.73-2.95Q305.73-2.95 304.99-2.42 304.24-1.88 303.02-1.17 301.8-0.46 300.32 0.07 298.85 0.61 297.38 0.61L297.38 0.61Q294.67 0.61 292.78-1.2 290.89-3 290.89-6.15L290.89-6.15Q290.89-7.54 291.39-8.74 291.89-9.94 293.39-11.02 294.89-12.11 297.86-13.15 300.82-14.18 305.73-15.26L305.73-15.26 305.73-17.41Q305.73-22.34 301.07-22.34L301.07-22.34Q299.77-22.34 298.83-22.09 297.89-21.85 297.53-21.7L297.53-21.7 297.53-17.36 293.89-17.36Q293.21-17.36 292.62-17.61 292.04-17.87 292.04-18.8L292.04-18.8Q292.04-20.85 293.6-22.16 295.16-23.46 297.57-24.08 299.97-24.71 302.44-24.71L302.44-24.71Q305.54-24.71 307.25-23.74 308.95-22.78 309.64-21.08 310.32-19.38 310.32-17.21L310.32-17.21 310.32-3.2Q310.32-2.73 310.63-2.44 310.93-2.15 311.37-2.1L311.37-2.1 313.79-1.95ZM305.73-4.71L305.73-4.71 305.73-13.35Q302.36-12.52 300.37-11.68 298.38-10.84 297.41-10 296.43-9.16 296.12-8.29 295.82-7.42 295.82-6.49L295.82-6.49Q295.82-4.96 296.81-3.65 297.8-2.34 299.58-2.34L299.58-2.34Q300.58-2.34 301.65-2.7 302.73-3.05 303.66-3.53 304.58-4 305.16-4.36 305.73-4.71 305.73-4.71ZM328.12-1.95L328.12 0 315.96 0 315.96-1.95 318.62-2.1Q318.96-2.1 319.34-2.47 319.72-2.83 319.72-3.15L319.72-3.15 319.72-33.25 315.91-33.25 315.91-34.91 322.31-36.84 324.36-36.84 324.36-3.15Q324.36-2.83 324.72-2.47 325.09-2.1 325.41-2.1L325.41-2.1 328.12-1.95ZM346.11-3.05L346.11-3.05 346.11-1.05Q346.11-1.05 345.17-0.63 344.23-0.22 342.7 0.2 341.18 0.61 339.37 0.61L339.37 0.61Q336.56 0.61 335.28-0.72 334-2.05 334-5L334-5 334-21.61 330.8-21.61 330.8-23.24 334.22-24.85 336.46-30.15 338.66-30.15 338.66-24.1 345.72-24.1 345.72-21.61 338.66-21.61 338.66-7.64Q338.66-4.66 339.66-3.43 340.66-2.2 342.67-2.2L342.67-2.2Q344.13-2.2 345.12-2.62 346.11-3.05 346.11-3.05ZM373.99-1.95L373.99 0 362.85 0 362.85-1.95 364.9-2.1Q365.34-2.15 365.67-2.44 366-2.73 366-3.2L366-3.2 366-16.09Q366-18.24 364.98-19.64 363.95-21.04 361.05-21.04L361.05-21.04Q359.73-21.04 358.2-20.63 356.68-20.21 355.6-19.6L355.6-19.6 355.6-3.2Q355.6-2.17 356.6-2.1L356.6-2.1 358.75-1.95 358.75 0 347.5 0 347.5-1.95 349.89-2.1Q350.94-2.17 350.94-3.2L350.94-3.2 350.94-33.25 347.2-33.25 347.2-34.91 353.6-36.84 355.6-36.84 355.6-21.61Q356.51-22.17 357.95-22.89 359.39-23.61 360.97-24.16 362.56-24.71 363.85-24.71L363.85-24.71Q366.73-24.71 368.69-22.85 370.64-21 370.64-17.14L370.64-17.14 370.64-3.2Q370.64-2.73 370.97-2.44 371.3-2.15 371.74-2.1L371.74-2.1 373.99-1.95ZM401.16-24.1L401.16-22.14 398.54-21.85 388.95 1.54Q388.63 2.34 387.96 3.85 387.29 5.35 386.37 6.92 385.46 8.5 384.41 9.55L384.41 9.55Q383.5 10.45 382.42 10.95 381.33 11.45 380.06 11.45L380.06 11.45Q378.28 11.45 377.34 10.58 376.4 9.72 376.4 8.59L376.4 8.59Q376.4 6.93 378.01 5.59L378.01 5.59 382.7 7.74Q383.53 6.91 384.36 5.49 385.19 4.08 385.86 2.56 386.53 1.05 386.9-0.05L386.9-0.05 378.4-21.85 375.64-22.14 375.64-24.1 386.7-24.1 386.7-22.14 384.31-22Q383.5-21.92 383.5-21.19L383.5-21.19Q383.5-21 383.55-20.9L383.55-20.9 389.36-6.15 395.3-20.9Q395.37-21.04 395.37-21.22L395.37-21.22Q395.37-21.95 394.61-22L394.61-22 392.25-22.14 392.25-24.1 401.16-24.1Z" opacity="1" transform="matrix(1,0,0,1,0,0)" fill="#ffffff" class="slogan-text-1" data-fill-palette-color="secondary" id="text-1"></path></svg></g></svg></g></svg></g></svg></g></svg></g><defs></defs></svg><rect width="243.2977635556917" height="280" fill="none" stroke="none" visibility="hidden"></rect></g></svg></g></svg>